<?xml version="1.0" encoding="UTF-8" standalone="no"?>
<svg xmlns="http://www.w3.org/2000/svg" viewBox="0 0 220 100" width="220" height="100">
  <g fill="none" stroke="#000" stroke-width="3" stroke-linecap="round" stroke-linejoin="round">
    <!-- Jumper 1 (leftmost) -->
    <g transform="translate(28,50)">
      <circle cx="0" cy="0" r="9" fill="#fff"/>
      <line x1="0" y1="9" x2="0" y2="22"/>
      <line x1="-10" y1="14" x2="-22" y2="6"/>
      <line x1="10" y1="14" x2="22" y2="6"/>
      <line x1="-4" y1="22" x2="-10" y2="34"/>
      <line x1="4" y1="22" x2="10" y2="34"/>
    </g>
    <!-- Jumper 2 -->
    <g transform="translate(82,50)">
      <circle cx="0" cy="0" r="9" fill="#fff"/>
      <line x1="0" y1="9" x2="0" y2="22"/>
      <line x1="-10" y1="14" x2="-22" y2="6"/>
      <line x1="10" y1="14" x2="22" y2="6"/>
      <line x1="-4" y1="22" x2="-10" y2="34"/>
      <line x1="4" y1="22" x2="10" y2="34"/>
    </g>
    <!-- Jumper 3 -->
    <g transform="translate(138,50)">
      <circle cx="0" cy="0" r="9" fill="#fff"/>
      <line x1="0" y1="9" x2="0" y2="22"/>
      <line x1="-10" y1="14" x2="-22" y2="6"/>
      <line x1="10" y1="14" x2="22" y2="6"/>
      <line x1="-4" y1="22" x2="-10" y2="34"/>
      <line x1="4" y1="22" x2="10" y2="34"/>
    </g>
    <!-- Jumper 4 -->
    <g transform="translate(192,50)">
      <circle cx="0" cy="0" r="9" fill="#fff"/>
      <line x1="0" y1="9" x2="0" y2="22"/>
      <line x1="-10" y1="14" x2="-22" y2="6"/>
      <line x1="10" y1="14" x2="22" y2="6"/>
      <line x1="-4" y1="22" x2="-10" y2="34"/>
      <line x1="4" y1="22" x2="10" y2="34"/>
    </g>
    <!-- Connecting grips between adjacent hands -->
    <circle cx="50" cy="56" r="3" fill="#fff"/>
    <circle cx="60" cy="56" r="3" fill="#fff"/>
    <circle cx="104" cy="56" r="3" fill="#fff"/>
    <circle cx="116" cy="56" r="3" fill="#fff"/>
    <circle cx="160" cy="56" r="3" fill="#fff"/>
    <circle cx="170" cy="56" r="3" fill="#fff"/>
  </g>
  <text x="110" y="96" font-family="Arial, sans-serif" font-size="6" fill="#aaa" text-anchor="middle" letter-spacing="1">PLACEHOLDER · REPLACE WITH FINAL ART</text>
</svg>
